{
  "accessors": [
    {
      "bufferView": 2,
      "componentType": 5126,
      "count": 1448,
      "max": [
        2.777541160583496,
        5.590506076812744,
        2.349613904953003
      ],
      "min": [
        -2.777541160583496,
        -0.1950310617685318,
        -1.238856554031372
      ],
      "type": "VEC3"
    },
    {
      "bufferView": 2,
      "byteOffset": 17376,
      "componentType": 5126,
      "count": 1448,
      "max": [
        1.0,
        1.0,
        1.0
      ],
      "min": [
        -1.0,
        -1.0,
        -1.0
      ],
      "type": "VEC3"
    },
    {
      "bufferView": 3,
      "componentType": 5126,
      "count": 1448,
      "max": [
        1.0,
        0.9999994039535522,
        0.9996078014373779,
        1.0
      ],
      "min": [
        -0.9999712109565735,
        -1.0,
        -1.0,
        1.0
      ],
      "type": "VEC4"
    },
    {
      "bufferView": 1,
      "componentType": 5126,
      "count": 1448,
      "max": [
        0.948074460029602,
        1.0
      ],
      "min": [
        0.0,
        0.0
      ],
      "type": "VEC2"
    },
    {
      "bufferView": 0,
      "componentType": 5125,
      "count": 4008,
      "type": "SCALAR"
    }
  ],
  "asset": {
    "extras": {
      "author": "Sapah (https://sketchfab.com/Sapah)",
      "license": "CC-BY-4.0 (http://creativecommons.org/licenses/by/4.0/)",
      "source": "https://sketchfab.com/3d-models/pineapple-glasses-71701db551c245a68c0550826a584274",
      "title": "Pineapple Glasses"
    },
    "generator": "Sketchfab-12.65.0",
    "version": "2.0"
  },
  "bufferViews": [
    {
      "buffer": 0,
      "byteLength": 16032,
      "name": "floatBufferViews",
      "target": 34963
    },
    {
      "buffer": 0,
      "byteLength": 11584,
      "byteOffset": 16032,
      "byteStride": 8,
      "name": "floatBufferViews",
      "target": 34962
    },
    {
      "buffer": 0,
      "byteLength": 34752,
      "byteOffset": 27616,
      "byteStride": 12,
      "name": "floatBufferViews",
      "target": 34962
    },
    {
      "buffer": 0,
      "byteLength": 23168,
      "byteOffset": 62368,
      "byteStride": 16,
      "name": "floatBufferViews",
      "target": 34962
    }
  ],
  "buffers": [
    {
      "byteLength": 85536,
      "uri": "scene.bin"
    }
  ],
  "images": [
    {
      "uri": "textures/TT_checker_512x512_UV_GRID_baseColor.png"
    },
    {
      "uri": "textures/TT_checker_512x512_UV_GRID_metallicRoughness.png"
    },
    {
      "uri": "textures/TT_checker_512x512_UV_GRID_normal.png"
    }
  ],
  "materials": [
    {
      "doubleSided": true,
      "name": "TT_checker_512x512_UV_GRID",
      "normalTexture": {
        "index": 2
      },
      "pbrMetallicRoughness": {
        "baseColorTexture": {
          "index": 0
        },
        "metallicRoughnessTexture": {
          "index": 1
        },
        "roughnessFactor": 0.13586128048780488
      }
    }
  ],
  "meshes": [
    {
      "name": "Circle.004_TT_checker_512x512_UV_GRID_0",
      "primitives": [
        {
          "attributes": {
            "NORMAL": 1,
            "POSITION": 0,
            "TANGENT": 2,
            "TEXCOORD_0": 3
          },
          "indices": 4,
          "material": 0,
          "mode": 4
        }
      ]
    }
  ],
  "nodes": [
    {
      "children": [
        1
      ],
      "matrix": [
        1.0,
        0.0,
        0.0,
        0.0,
        0.0,
        2.220446049250313e-16,
        -1.0,
        0.0,
        0.0,
        1.0,
        2.220446049250313e-16,
        0.0,
        0.0,
        0.0,
        0.0,
        1.0
      ],
      "name": "Sketchfab_model"
    },
    {
      "children": [
        2
      ],
      "matrix": [
        1.0,
        0.0,
        0.0,
        0.0,
        0.0,
        0.0,
        1.0,
        0.0,
        0.0,
        -1.0,
        0.0,
        0.0,
        0.0,
        0.0,
        0.0,
        1.0
      ],
      "name": "2f2488128cca45febe9421182a273ab6.fbx"
    },
    {
      "children": [
        3
      ],
      "name": "RootNode"
    },
    {
      "children": [
        4
      ],
      "matrix": [
        100.0,
        0.0,
        0.0,
        0.0,
        0.0,
        -1.629206793918314e-05,
        -99.99999999999868,
        0.0,
        0.0,
        99.99999999999868,
        -1.629206793918314e-05,
        0.0,
        6.941533088684082,
        0.0,
        0.0,
        1.0
      ],
      "name": "Circle.004"
    },
    {
      "mesh": 0,
      "name": "Circle.004_TT_checker_512x512_UV_GRID_0"
    }
  ],
  "samplers": [
    {
      "magFilter": 9729,
      "minFilter": 9987,
      "wrapS": 10497,
      "wrapT": 10497
    }
  ],
  "scene": 0,
  "scenes": [
    {
      "name": "Sketchfab_Scene",
      "nodes": [
        0
      ]
    }
  ],
  "textures": [
    {
      "sampler": 0,
      "source": 0
    },
    {
      "sampler": 0,
      "source": 1
    },
    {
      "sampler": 0,
      "source": 2
    }
  ]
}
